<?xml version="1.0" encoding="UTF-8" standalone="no"?>
<svg width="55px" height="55px" viewBox="0 0 55 55" version="1.1" xmlns="http://www.w3.org/2000/svg" xmlns:xlink="http://www.w3.org/1999/xlink" xmlns:sketch="http://www.bohemiancoding.com/sketch/ns">
    <!-- Generator: Sketch 3.3.3 (12072) - http://www.bohemiancoding.com/sketch -->
    <title>Artboard 1</title>
    <desc>Created with Sketch.</desc>
    <defs></defs>
    <g id="Page-1" stroke="none" stroke-width="1" fill="none" fill-rule="evenodd" sketch:type="MSPage">
        <g id="Artboard-1" sketch:type="MSArtboardGroup">
            <g id="Imported-Layers" sketch:type="MSLayerGroup" transform="translate(4.000000, 6.000000)">
                <path d="M41.9301818,0.589636364 C41.9301818,0.312545455 41.7190909,0.0872727273 41.4485455,0.0605454545 L41.4469091,0.0550909091 L32.1185455,0.0550909091 L32.1174545,0.0572727273 C32.1103636,0.0572727273 32.1038182,0.0550909091 32.0967273,0.0550909091 C31.8021818,0.0550909091 31.5621818,0.294545455 31.5621818,0.589636364 C31.5621818,0.874909091 31.7863636,1.10618182 32.0683636,1.12145455 C32.0847273,1.12636364 32.1021818,1.12963636 32.1218182,1.12963636 L32.1332727,1.12963636 C32.5118182,1.12963636 34.2038182,1.25890909 34.9374545,1.46072727 C30.8929091,2.55381818 26.496,4.22781818 22.0521818,6.45381818 C7.49890909,13.746 -2.02854545,24.1903636 0.772909091,29.7812727 C2.89581818,34.0183636 11.49,34.2512727 21.8612727,30.9430909 L21.8607273,30.9430909 C22.1001818,30.8721818 22.2752727,30.6507273 22.2752727,30.3883636 C22.2752727,30.0692727 22.0167273,29.8101818 21.6976364,29.8101818 C21.6550909,29.8101818 21.6141818,29.8150909 21.5732727,29.8238182 L21.5732727,29.8232727 C21.5590909,29.8270909 21.5443636,29.8309091 21.5290909,29.8352727 C21.5290909,29.8352727 21.5263636,29.8358182 21.5252727,29.8363636 C13.2714545,32.0503636 6.73636364,31.6472727 5.04490909,28.2725455 C2.55927273,23.3105455 11.484,13.8054545 24.9818182,7.04345455 C28.8747273,5.09236364 32.7218182,3.58472727 36.2869091,2.54345455 C36.3070909,2.60563636 36.3790909,2.86854545 36.2356364,3.15381818 C36.102,3.42327273 34.9974545,4.40618182 34.4323636,4.88836364 L34.3947273,4.92109091 L34.3958182,4.92163636 C34.2889091,5.01981818 34.2196364,5.15890909 34.2196364,5.31545455 C34.2196364,5.61054545 34.4590909,5.85 34.7541818,5.85 C34.8594545,5.85 34.9570909,5.81836364 35.0394545,5.766 L35.0405455,5.76654545 L35.0470909,5.76218182 C35.052,5.75836364 35.0574545,5.75454545 35.0629091,5.75072727 L41.7245455,1.01345455 L41.724,1.00963636 C41.8489091,0.911454545 41.9301818,0.760909091 41.9301818,0.589636364" id="Fill-1" fill="#426570" sketch:type="MSShapeGroup"></path>
                <path d="M47.7092727,22.4252727 C47.7092727,22.1301818 47.4698182,21.8907273 47.1741818,21.8907273 C47.1550909,21.8907273 47.136,21.8945455 47.1174545,21.8967273 L47.1174545,21.8961818 L43.7045455,22.2305455 C46.3112727,18.7805455 47.2974545,15.5934545 46.1252727,13.2545455 C44.0023636,9.018 35.4087273,8.78509091 25.0369091,12.0932727 L25.038,12.0932727 C24.7985455,12.1641818 24.6229091,12.3850909 24.6229091,12.6474545 C24.6229091,12.9670909 24.882,13.2256364 25.2010909,13.2256364 C25.2436364,13.2256364 25.2845455,13.2212727 25.3243636,13.2125455 L25.3249091,13.2125455 C25.3390909,13.2087273 25.3543636,13.2049091 25.3696364,13.2010909 C25.3707273,13.2005455 25.3723636,13.2 25.3723636,13.2 C33.6272727,10.9854545 40.1623636,11.3885455 41.8532727,14.7638182 C42.87,16.7918182 41.9781818,19.5796364 39.648,22.6287273 L35.4185455,23.0432727 L35.4185455,23.0492727 C35.0814545,23.052 34.8087273,23.3258182 34.8087273,23.664 C34.8087273,24.0038182 35.0841818,24.2792727 35.424,24.2792727 C35.4485455,24.2792727 35.472,24.2776364 35.4954545,24.2749091 L38.2761818,24.2716364 C34.6892727,28.2387273 28.9183636,32.4850909 21.9169091,35.9929091 C18.024,37.944 14.1763636,39.4516364 10.6118182,40.4929091 C10.5910909,40.4307273 10.5196364,40.1678182 10.6625455,39.8825455 C10.7978182,39.6130909 11.9012727,38.6301818 12.4663636,38.1474545 L12.5034545,38.1152727 L12.5029091,38.1141818 C12.6098182,38.0165455 12.678,37.8774545 12.678,37.7209091 C12.678,37.4258182 12.4390909,37.1863636 12.1434545,37.1863636 C12.0387273,37.1863636 11.9416364,37.218 11.8592727,37.2703636 L11.8581818,37.2698182 L11.8510909,37.2741818 C11.8467273,37.2774545 11.8407273,37.2812727 11.8358182,37.2850909 L5.17418182,42.0229091 L5.17472727,42.0267273 C5.04927273,42.1243636 4.96745455,42.2754545 4.96745455,42.4461818 C4.96745455,42.7238182 5.17963636,42.9490909 5.44963636,42.9758182 L5.45181818,42.9812727 L14.7807273,42.9812727 L14.7812727,42.9790909 C14.7883636,42.9790909 14.7943636,42.9812727 14.802,42.9812727 C15.0965455,42.9812727 15.3365455,42.7418182 15.3365455,42.4461818 C15.3365455,42.1609091 15.1118182,41.9301818 14.8303636,41.9149091 C14.8134545,41.91 14.7965455,41.9067273 14.7769091,41.9067273 L14.7643636,41.9067273 C14.3869091,41.9067273 12.6949091,41.7774545 11.9612727,41.5756364 C16.0063636,40.482 20.4027273,38.8085455 24.8454545,36.5825455 C32.1310909,32.9318182 38.1567273,28.4918182 42.0065455,24.2661818 L45.7821818,24.2612727 L45.8023636,24.2525455 C45.9414545,24.2487273 46.0658182,24.1925455 46.1590909,24.1025455 L46.1683636,24.0987273 L47.5287273,22.8289091 L47.5270909,22.8245455 C47.6372727,22.7263636 47.7092727,22.5850909 47.7092727,22.4252727" id="Fill-2" fill="#E15E30" sketch:type="MSShapeGroup"></path>
            </g>
        </g>
    </g>
</svg>