<?xml version="1.0" encoding="UTF-8" standalone="no"?>
<svg width="563px" height="195px" viewBox="0 0 563 195" version="1.1" xmlns="http://www.w3.org/2000/svg" xmlns:xlink="http://www.w3.org/1999/xlink">
    <!-- Generator: Sketch 3.8.3 (29802) - http://www.bohemiancoding.com/sketch -->
    <title>clouds</title>
    <desc>Created with Sketch.</desc>
    <defs></defs>
    <g id="Page-1" stroke="none" stroke-width="1" fill="none" fill-rule="evenodd">
        <g id="clouds" transform="translate(1.000000, 1.000000)" stroke="#FFFFFF">
            <path d="M26.91645,121.877276 C34.6045022,131.692462 46.5656489,138 60,138 C70.0086119,138 79.1995551,134.499144 86.415086,128.655177 C89.6294211,130.159556 93.2165624,131 97,131 C110.807119,131 122,119.807119 122,106 C122,92.9619359 112.019277,82.2549945 99.2813497,81.1026944 C93.2699529,65.2604188 77.9499823,54 60,54 C44.4472321,54 30.868909,62.4536036 23.6092725,75.0165692 C11.0433225,75.4848392 1,85.8195478 1,98.5 C1,111.478692 11.5213084,122 24.5,122 C25.3158616,122 26.1220127,121.958424 26.91645,121.877276 Z" id="Combined-Shape" stroke-width="3" opacity="0.197119869"></path>
            <path d="M516.99439,86.5144494 C520.552497,91.0715001 526.088234,94 532.305785,94 C536.93787,94 541.19153,92.3746028 544.530949,89.6613322 C546.018575,90.3597937 547.67874,90.75 549.429752,90.75 C555.819824,90.75 561,85.5533051 561,79.1428571 C561,73.0894702 556.380822,68.1183903 550.485583,67.5833939 C547.703449,60.2280516 540.613215,55 532.305785,55 C525.10781,55 518.823627,58.9248874 515.463796,64.7576929 C509.648149,64.9751039 505,69.7733615 505,75.6607143 C505,81.6865354 509.869366,86.5714286 515.876033,86.5714286 C516.253622,86.5714286 516.626717,86.5521255 516.99439,86.5144494 Z" id="Combined-Shape-Copy-4" opacity="0.147213153"></path>
            <path d="M147.064701,52.1305998 C151.132811,54.5867466 155.901364,56 161,56 C166.70022,56 171.98787,54.2335745 176.345417,51.2182552 C178.826485,52.3620253 181.588739,53 184.5,53 C195.269553,53 204,44.2695526 204,33.5 C204,22.7304474 195.269553,14 184.5,14 C184.154895,14 183.811883,14.0089649 183.471185,14.0266745 C178.630046,6.77579604 170.372747,2 161,2 C152.07127,2 144.154805,6.33402535 139.239589,13.013093 C138.994134,13.0043888 138.747579,13 138.5,13 C127.178163,13 118,22.1781626 118,33.5 C118,44.8218374 127.178163,54 138.5,54 C141.557402,54 144.458479,53.3306904 147.064701,52.1305998 Z" id="Combined-Shape" stroke-width="3" opacity="0.2"></path>
            <path d="M205.064701,188.1306 C209.132811,190.586747 213.901364,192 219,192 C224.70022,192 229.98787,190.233575 234.345417,187.218255 C236.826485,188.362025 239.588739,189 242.5,189 C253.269553,189 262,180.269553 262,169.5 C262,158.730447 253.269553,150 242.5,150 C242.154895,150 241.811883,150.008965 241.471185,150.026674 C236.630046,142.775796 228.372747,138 219,138 C210.07127,138 202.154805,142.334025 197.239589,149.013093 C196.994134,149.004389 196.747579,149 196.5,149 C185.178163,149 176,158.178163 176,169.5 C176,180.821837 185.178163,190 196.5,190 C199.557402,190 202.458479,189.33069 205.064701,188.1306 Z" id="Combined-Shape-Copy" stroke-width="3" opacity="0.127915112"></path>
            <path d="M299.939737,34.3487443 C302.730649,36.0316597 306.002099,37 309.5,37 C313.410616,37 317.03819,35.7896714 320.02767,33.7236193 C321.729798,34.5073136 323.624833,34.9444444 325.622093,34.9444444 C333.010507,34.9444444 339,28.9624712 339,21.5833333 C339,14.2041954 333.010507,8.22222222 325.622093,8.22222222 C325.385335,8.22222222 325.150013,8.22836483 324.916278,8.24049918 C321.595032,3.2723047 315.93014,0 309.5,0 C303.374476,0 297.943413,2.96960996 294.571346,7.54600816 C294.402952,7.54004421 294.233804,7.53703704 294.063953,7.53703704 C286.296646,7.53703704 280,13.8257781 280,21.5833333 C280,29.3408886 286.296646,35.6296296 294.063953,35.6296296 C296.161474,35.6296296 298.151747,35.1710286 299.939737,34.3487443 Z" id="Combined-Shape-Copy-5" opacity="0.201084422"></path>
            <path d="M425.763803,84.6900418 C422.136318,86.1790001 418.164036,87 414,87 C396.879173,87 383,73.1208272 383,56 C383,38.8791728 396.879173,25 414,25 C415.100846,25 416.18829,25.0573809 417.259504,25.1693149 C422.382755,21.896727 428.469875,20 435,20 C444.831532,20 453.658894,24.2993646 459.704522,31.1205299 C462.175968,30.3913358 464.792283,30 467.5,30 C482.687831,30 495,42.3121694 495,57.5 C495,72.6878306 482.687831,85 467.5,85 C462.1094,85 457.08106,83.4489803 452.836905,80.768866 C447.693682,84.0793755 441.571134,86 435,86 C431.793935,86 428.694656,85.5427999 425.763803,84.6900418 Z" id="Combined-Shape" stroke-width="3" opacity="0.153801306"></path>
            <path d="M27.0000819,184.862259 C25.2187276,185.595627 23.2680536,186 21.2232143,186 C12.8156652,186 6,179.16399 6,170.731343 C6,162.298697 12.8156652,155.462687 21.2232143,155.462687 C21.7638083,155.462687 22.297821,155.490949 22.8238637,155.54608 C25.3397455,153.934209 28.3289565,153 31.5357143,153 C36.363699,153 40.6985642,155.117597 43.6673992,158.477276 C44.8810555,158.118121 46.1658533,157.925373 47.4955357,157.925373 C54.9538454,157.925373 61,163.989576 61,171.470149 C61,178.950723 54.9538454,185.014925 47.4955357,185.014925 C44.848366,185.014925 42.3790919,184.25099 40.2949087,182.930934 C37.7692195,184.561483 34.7626108,185.507463 31.5357143,185.507463 C29.9613076,185.507463 28.4393399,185.282275 27.0000819,184.862259 Z" id="Combined-Shape-Copy-2" stroke-width="2" opacity="0.183710354"></path>
            <path d="M387.000082,154.862259 C385.218728,155.595627 383.268054,156 381.223214,156 C372.815665,156 366,149.16399 366,140.731343 C366,132.298697 372.815665,125.462687 381.223214,125.462687 C381.763808,125.462687 382.297821,125.490949 382.823864,125.54608 C385.339746,123.934209 388.328957,123 391.535714,123 C396.363699,123 400.698564,125.117597 403.667399,128.477276 C404.881055,128.118121 406.165853,127.925373 407.495536,127.925373 C414.953845,127.925373 421,133.989576 421,141.470149 C421,148.950723 414.953845,155.014925 407.495536,155.014925 C404.848366,155.014925 402.379092,154.25099 400.294909,152.930934 C397.76922,154.561483 394.762611,155.507463 391.535714,155.507463 C389.961308,155.507463 388.43934,155.282275 387.000082,154.862259 Z" id="Combined-Shape-Copy-2" stroke-width="2" opacity="0.183710354"></path>
            <path d="M485.397203,162.449174 C489.902084,165.330051 495.256024,167 501,167 C508.423432,167 515.1954,164.210751 520.325054,159.623103 C522.864656,161.132934 525.831071,162 529,162 C538.388841,162 546,154.388841 546,145 C546,135.611159 538.388841,128 529,128 C528.74394,128 528.489202,128.005661 528.235905,128.016865 C524.166844,116.918957 513.508208,109 501,109 C493.298166,109 486.297576,112.002383 481.104793,116.900587 C479.003589,116.313752 476.788435,116 474.5,116 C460.969024,116 450,126.969024 450,140.5 C450,154.030976 460.969024,165 474.5,165 C478.414707,165 482.114971,164.081862 485.397203,162.449174 Z" id="Combined-Shape" stroke-width="2" opacity="0.213969216"></path>
            <path d="M18.436043,28.6461246 C20.7823356,30.1362335 23.5708456,31 26.5625,31 C30.4288708,31 33.9559374,29.5572851 36.6276325,27.1843638 C37.9503414,27.9653109 39.4953494,28.4137931 41.1458333,28.4137931 C46.0358546,28.4137931 50,24.4769866 50,19.6206897 C50,14.7643927 46.0358546,10.8275862 41.1458333,10.8275862 C41.0124687,10.8275862 40.8797927,10.8305144 40.7478671,10.8363097 C38.6285646,5.09601201 33.0771915,1 26.5625,1 C22.5511281,1 18.9049874,2.55295679 16.2004128,5.08651043 C15.106036,4.7829753 13.9523099,4.62068966 12.7604167,4.62068966 C5.71303314,4.62068966 0,10.2943226 0,17.2931034 C0,24.2918843 5.71303314,29.9655172 12.7604167,29.9655172 C14.7993264,29.9655172 16.7265472,29.4906181 18.436043,28.6461246 Z" id="Combined-Shape-Copy-3" opacity="0.18201959"></path>
        </g>
    </g>
</svg>